{"glyphs":{"0":{"ha":859,"x_min":0,"x_max":825,"o":"m 302 273 l 524 273 q 545 280 537 273 q 556 296 553 286 q 559 319 560 308 l 559 664 q 556 687 560 675 q 545 703 553 696 q 524 710 537 710 l 524 710 l 302 710 l 302 710 q 280 703 289 710 q 269 687 273 696 q 266 664 265 675 l 266 319 q 269 296 265 308 q 280 280 273 286 q 302 273 289 273 m 299 983 l 526 983 q 756 888 678 983 q 825 664 825 805 l 825 319 q 756 94 825 178 q 526 0 678 0 l 299 0 q 69 94 147 0 q 0 319 0 178 l 0 664 q 69 888 0 805 q 299 983 147 983 "},"1":{"ha":307,"x_min":0,"x_max":273,"o":"m 0 0 l 0 983 l 273 983 l 273 0 l 0 0 "},"2":{"ha":711,"x_min":0,"x_max":677,"o":"m 444 406 l 355 317 l 311 273 l 677 273 l 677 0 l 1 0 q 0 245 0 114 q 43 378 0 315 q 86 432 59 403 l 111 458 l 136 484 q 264 614 172 521 q 298 647 280 629 q 328 676 311 659 q 361 710 357 706 l 14 710 l 14 983 l 439 983 q 604 909 535 983 q 672 737 672 837 q 628 604 672 668 q 584 549 611 578 l 559 522 l 534 496 l 444 406 "},"3":{"ha":717,"x_min":0,"x_max":683,"o":"m 315 983 q 571 927 487 983 q 683 665 683 852 q 646 498 683 575 q 683 319 683 429 q 609 94 683 189 q 434 0 536 0 l 0 0 l 0 273 l 380 273 q 406 287 395 273 q 416 319 416 300 q 409 347 416 335 q 380 366 398 366 l 380 366 l 0 366 l 0 619 l 380 619 l 380 619 q 408 635 397 619 q 416 665 416 648 q 406 698 416 684 q 380 711 395 711 l 0 711 l 0 983 q 315 983 84 983 "},"4":{"ha":741,"x_min":0,"x_max":707,"o":"m 433 621 l 433 983 l 707 983 l 707 0 l 433 0 l 433 348 l 0 348 l 0 983 l 273 983 l 273 621 l 433 621 "},"5":{"ha":716,"x_min":0,"x_max":682,"o":"m 273 619 l 373 619 q 528 585 450 621 q 634 496 595 553 q 682 319 682 425 q 613 94 682 178 q 383 0 535 0 l 0 0 l 0 273 l 380 273 q 406 287 395 273 q 416 319 416 300 q 409 347 416 335 q 380 366 398 366 l 380 366 l 0 366 l 0 983 l 652 983 l 652 710 l 273 710 l 273 619 "},"6":{"ha":842,"x_min":0,"x_max":808,"o":"m 302 273 l 505 273 q 531 287 520 273 q 542 319 542 300 q 534 347 542 335 q 513 364 526 361 q 503 364 508 364 l 309 364 q 266 364 309 364 l 266 319 q 269 296 265 308 q 302 273 277 273 m 513 618 q 534 617 523 618 q 561 613 547 616 q 628 595 596 607 q 762 492 716 562 q 808 319 808 422 q 739 94 808 178 q 509 0 661 0 l 299 0 q 69 94 147 0 q 0 319 0 178 l 0 332 q 0 664 0 659 q 69 888 0 805 q 299 983 147 983 l 735 983 l 735 710 l 302 710 l 302 710 q 280 703 289 710 q 269 687 273 696 q 266 664 265 675 l 266 619 l 498 619 l 500 619 l 503 619 q 513 618 508 619 "},"7":{"ha":716,"x_min":0,"x_max":682,"o":"m 0 710 l 0 983 l 682 983 l 382 0 l 96 0 l 304 710 l 0 710 "},"8":{"ha":842,"x_min":0,"x_max":808,"o":"m 302 273 l 505 273 q 531 287 520 273 q 542 319 542 300 q 534 347 542 335 q 513 364 526 361 q 503 364 507 364 l 304 364 q 295 364 300 364 q 273 347 281 361 q 266 319 266 335 q 277 287 266 300 q 302 273 287 273 m 302 710 l 302 710 q 277 696 287 709 q 266 664 266 683 q 273 635 266 648 q 295 618 281 622 q 304 619 300 619 l 308 619 l 309 619 l 498 619 l 500 619 l 503 619 q 513 618 507 619 q 534 635 526 622 q 542 664 542 648 q 531 696 542 683 q 505 710 520 709 l 505 710 l 302 710 m 299 983 l 509 983 q 739 888 661 983 q 808 664 808 805 q 762 492 808 562 q 808 319 808 422 q 739 94 808 178 q 509 0 661 0 l 299 0 q 69 94 147 0 q 0 319 0 178 q 45 492 0 422 q 0 664 0 562 q 69 888 0 805 q 299 983 147 983 "},"9":{"ha":842,"x_min":0,"x_max":808,"o":"m 505 710 l 302 710 q 277 696 287 709 q 266 664 266 683 q 273 635 266 648 q 294 618 281 622 q 304 619 300 619 l 498 619 q 542 618 499 619 l 542 664 q 538 687 543 675 q 505 710 530 710 m 294 364 q 274 366 285 365 q 247 370 260 368 q 180 388 212 376 q 45 492 92 421 q 0 664 0 561 q 69 888 0 805 q 299 983 147 983 l 509 983 q 739 888 661 983 q 808 664 808 805 l 808 651 q 808 319 808 323 q 739 94 808 178 q 509 0 661 0 l 73 0 l 73 273 l 505 273 l 505 273 q 528 280 519 273 q 538 296 534 286 q 542 319 543 308 l 542 364 l 309 364 l 308 364 l 304 364 q 294 364 300 364 "},"\u0000":{"ha":0,"x_min":0,"x_max":0,"o":""}," ":{"ha":248,"x_min":0,"x_max":0,"o":""},"!":{"ha":307,"x_min":0,"x_max":273,"o":"m 0 298 l 0 983 l 273 983 l 273 298 l 0 298 m 0 0 l 0 245 l 273 245 l 273 0 l 0 0 "},"\"":{"ha":618,"x_min":0,"x_max":584,"o":"m 311 624 l 311 983 l 584 983 l 584 624 l 311 624 m 0 624 l 0 983 l 273 983 l 273 624 l 0 624 "},"#":{"ha":539,"x_min":0,"x_max":505,"o":"m 0 713 l 56 713 l 64 765 l 31 765 l 31 900 l 89 900 l 104 983 l 261 983 l 246 900 l 302 900 l 317 983 l 474 983 l 459 900 l 505 900 l 505 765 l 435 765 l 425 713 l 475 713 l 475 578 l 401 578 l 386 492 l 229 492 l 244 578 l 188 578 l 173 492 l 16 492 l 31 578 l 0 578 l 0 713 m 277 765 l 222 765 l 212 713 l 269 713 l 277 765 "},"$":{"ha":372,"x_min":0,"x_max":338,"o":"m 119 939 l 120 939 l 120 982 l 219 982 l 219 939 l 332 939 l 332 802 l 158 802 q 175 785 160 800 q 317 636 309 648 q 338 570 338 605 q 304 484 338 520 q 222 447 270 447 l 219 447 l 219 400 l 120 400 l 120 447 l 0 447 l 0 584 l 183 584 l 24 749 q 3 816 3 781 q 37 902 3 865 q 119 939 71 939 "},"%":{"ha":611,"x_min":0,"x_max":577,"o":"m 62 492 l 357 983 l 514 983 l 219 492 l 62 492 m 476 604 l 453 604 q 451 604 452 604 q 450 606 450 604 q 450 608 450 607 l 450 630 q 450 632 450 631 q 451 634 450 633 q 453 635 452 635 l 476 635 q 478 634 477 635 q 479 632 479 633 q 479 630 479 631 l 479 608 q 479 606 479 607 q 478 604 479 605 q 476 604 477 604 m 496 746 l 433 746 q 371 720 392 746 q 352 659 352 698 l 352 578 q 371 517 352 540 q 433 492 392 492 l 496 492 q 558 517 537 492 q 577 578 577 540 l 577 659 q 558 720 577 697 q 496 746 537 746 m 124 840 l 101 840 q 99 841 100 840 q 98 842 98 841 q 98 845 98 844 l 98 867 q 98 869 98 868 q 99 871 98 870 q 101 871 100 871 l 124 871 q 126 871 125 871 q 127 869 127 870 q 127 867 127 868 l 127 845 q 127 842 127 844 q 126 841 127 842 q 124 840 125 840 m 144 983 l 81 983 q 19 957 40 983 q 0 896 0 935 l 0 815 q 19 754 0 777 q 81 728 40 728 l 144 728 q 206 754 185 728 q 225 815 225 777 l 225 896 q 206 957 225 934 q 144 983 185 983 "},"&":{"ha":865,"x_min":0,"x_max":831,"o":"m 302 272 l 565 272 l 565 364 l 302 364 q 275 348 286 363 q 266 318 266 335 q 277 286 266 299 q 302 272 287 272 m 565 710 l 831 710 l 831 0 l 368 0 q 111 56 195 0 q 0 318 0 130 q 37 484 0 408 q 0 664 0 554 q 73 888 0 794 q 248 983 146 983 l 471 983 l 471 710 l 302 710 l 302 710 q 277 696 287 709 q 266 664 266 683 q 273 635 266 648 q 302 617 284 618 l 565 617 l 565 710 "},"'":{"ha":307,"x_min":0,"x_max":273,"o":"m 0 623 l 0 982 l 273 982 l 273 623 l 0 623 "},"(":{"ha":373,"x_min":0,"x_max":339,"o":"m 339 273 l 339 0 l 299 0 q 69 94 147 0 q 0 319 0 178 l 0 664 q 69 888 0 805 q 299 983 147 983 l 339 983 l 339 710 l 302 710 q 280 703 289 710 q 269 687 273 696 q 266 664 265 675 l 266 319 q 269 296 265 308 q 280 280 273 286 q 302 273 289 273 l 339 273 "},")":{"ha":373,"x_min":0,"x_max":339,"o":"m 0 0 l 0 273 l 37 273 q 59 280 50 273 q 70 296 66 286 q 73 319 74 308 l 73 664 q 70 687 74 675 q 59 703 66 696 q 37 710 50 710 l 0 710 l 0 983 l 40 983 q 270 888 192 983 q 339 664 339 805 l 339 319 q 270 94 339 178 q 40 0 192 0 l 0 0 "},"*":{"ha":421,"x_min":0,"x_max":387,"o":"m 272 644 l 243 672 l 243 597 l 146 597 l 146 673 l 115 642 l 46 711 l 75 741 l 0 741 l 0 839 l 77 839 l 47 868 l 117 937 l 146 909 l 146 982 l 243 982 l 243 909 l 272 937 l 341 868 l 312 839 l 387 839 l 387 741 l 313 741 l 341 713 l 272 644 "},"+":{"ha":645,"x_min":0,"x_max":611,"o":"m 169 186 l 169 355 l 0 355 l 0 628 l 169 628 l 169 797 l 442 797 l 442 628 l 611 628 l 611 355 l 442 355 l 442 186 l 169 186 "},",":{"ha":416,"x_min":0,"x_max":382,"o":"m 0 0 l 95 245 l 382 245 l 287 0 l 0 0 "},"-":{"ha":414,"x_min":0,"x_max":380,"o":"m 0 355 l 0 628 l 380 628 l 380 355 l 0 355 "},".":{"ha":307,"x_min":0,"x_max":273,"o":"m 0 0 l 0 245 l 273 245 l 273 0 l 0 0 "},"/":{"ha":524,"x_min":0,"x_max":490,"o":"m 0 0 l 176 983 l 490 983 l 314 0 l 0 0 "},":":{"ha":307,"x_min":0,"x_max":273,"o":"m 0 0 l 0 245 l 273 245 l 273 0 l 0 0 m 0 736 l 0 981 l 273 981 l 273 736 l 0 736 "},";":{"ha":416,"x_min":0,"x_max":382,"o":"m 109 736 l 109 981 l 382 981 l 382 736 l 109 736 m 0 0 l 95 245 l 382 245 l 287 0 l 0 0 "},"<":{"ha":638,"x_min":0,"x_max":604,"o":"m 0 340 l 0 644 l 604 981 l 604 681 l 268 491 l 604 301 l 604 0 l 0 340 "},"=":{"ha":627,"x_min":0,"x_max":593,"o":"m 0 185 l 0 458 l 593 458 l 593 185 l 0 185 m 0 524 l 0 798 l 593 798 l 593 524 l 0 524 "},">":{"ha":638,"x_min":0,"x_max":604,"o":"m 604 644 l 604 340 l 0 0 l 0 301 l 336 491 l 0 681 l 0 981 l 604 644 "},"?":{"ha":716,"x_min":0,"x_max":682,"o":"m 0 983 l 383 983 q 613 888 535 983 q 682 664 682 805 q 528 398 682 471 q 373 364 450 362 l 273 364 l 273 298 l 0 298 l 0 617 l 380 617 q 409 635 398 618 q 416 664 416 648 q 406 696 416 683 q 380 710 395 709 l 380 710 l 0 710 l 0 983 m 0 0 l 0 245 l 273 245 l 273 0 l 0 0 "},"@":{"ha":1074,"x_min":0,"x_max":1040,"o":"m 616 273 l 738 273 q 771 296 763 273 q 774 319 775 308 l 774 364 l 608 364 q 587 347 595 361 q 580 319 580 335 q 591 287 580 300 q 616 273 601 273 m 299 983 l 741 983 q 971 888 893 983 q 1040 664 1040 805 l 1040 319 q 971 94 1040 178 q 741 0 893 0 l 613 0 q 383 94 461 0 q 314 319 314 178 q 359 492 314 422 q 494 595 406 562 q 561 613 526 607 q 588 617 574 616 q 608 618 599 618 q 618 619 614 619 l 774 619 l 774 664 q 771 687 775 675 q 760 703 767 696 q 738 710 751 710 l 302 710 q 280 703 289 710 q 269 687 273 696 q 266 664 265 675 l 266 1 l 0 1 l 0 664 q 69 888 0 805 q 299 983 147 983 "},"A":{"ha":1128,"x_min":0,"x_max":1095,"o":"m 461 353 l 647 353 l 554 599 l 461 353 m 389 983 l 719 983 l 1095 0 l 781 0 l 743 97 l 364 97 l 328 0 l 0 0 l 389 983 "},"B":{"ha":916,"x_min":0,"x_max":882,"o":"m 570 635 q 580 665 580 648 q 568 698 580 684 q 539 711 556 711 l 274 711 l 274 619 l 539 619 l 539 619 q 570 635 557 619 m 274 273 l 539 273 q 568 287 556 273 q 580 319 580 300 q 571 347 580 335 q 539 366 559 366 l 539 366 l 274 366 l 274 273 m 0 983 l 464 983 q 755 927 660 983 q 882 665 882 852 q 840 498 882 575 q 882 319 882 429 q 799 95 882 189 q 600 0 717 1 l 0 0 l 0 983 "},"C":{"ha":907,"x_min":0,"x_max":873,"o":"m 873 983 l 873 710 l 492 710 q 336 646 399 710 q 273 492 273 583 q 337 337 273 401 q 492 273 401 273 l 873 273 l 873 0 l 492 0 q 144 144 288 0 q 0 492 0 288 q 144 839 0 695 q 492 983 288 983 l 873 983 "},"D":{"ha":956,"x_min":0,"x_max":922,"o":"m 273 273 l 430 273 q 585 337 521 273 q 649 492 649 401 q 586 646 649 583 q 430 710 522 710 l 430 710 l 273 710 l 273 273 m 0 983 l 430 983 q 777 839 633 983 q 922 492 922 695 q 777 144 922 288 q 430 0 633 0 l 0 0 l 0 983 "},"E":{"ha":746,"x_min":0,"x_max":712,"o":"m 0 983 l 712 983 l 712 710 l 273 710 l 273 628 l 712 628 l 712 355 l 273 355 l 273 273 l 712 273 l 712 0 l 0 0 l 0 983 "},"F":{"ha":746,"x_min":0,"x_max":712,"o":"m 0 983 l 712 983 l 712 710 l 273 710 l 273 628 l 644 628 l 644 355 l 273 355 l 273 0 l 0 0 l 0 983 "},"G":{"ha":912,"x_min":0,"x_max":878,"o":"m 605 273 l 605 482 l 878 482 l 878 0 l 492 0 q 144 144 288 0 q 0 492 0 288 q 144 839 0 695 q 492 983 288 983 l 873 983 l 873 710 l 492 710 l 492 710 q 336 646 399 710 q 273 492 273 583 q 337 337 273 401 q 492 273 401 273 l 605 273 "},"H":{"ha":872,"x_min":0,"x_max":838,"o":"m 566 628 l 566 983 l 838 983 l 838 0 l 566 0 l 566 355 l 273 355 l 273 0 l 0 0 l 0 983 l 273 983 l 273 628 l 566 628 "},"I":{"ha":307,"x_min":0,"x_max":273,"o":"m 0 0 l 0 983 l 273 983 l 273 0 l 0 0 "},"J":{"ha":703,"x_min":0,"x_max":669,"o":"m 396 505 l 396 983 l 669 983 l 669 505 q 622 272 669 375 q 527 136 587 193 q 304 17 437 50 q 214 2 260 6 q 182 0 197 1 q 170 0 176 0 q 162 0 166 0 l 0 0 l 0 273 l 170 273 l 170 273 l 172 273 q 180 273 176 273 q 205 277 192 275 q 283 303 248 285 q 396 505 396 362 "},"K":{"ha":943,"x_min":0,"x_max":1206,"o":"m 556 983 l 909 983 l 491 427 l 624 273 l 1206 273 l 1206 0 l 492 0 l 273 250 l 273 0 l 0 0 l 0 983 l 273 983 l 273 599 l 556 983 "},"L":{"ha":780,"x_min":0,"x_max":746,"o":"m 273 983 l 273 273 l 746 273 l 746 0 l 0 0 l 0 983 l 273 983 "},"M":{"ha":1109,"x_min":0,"x_max":1075,"o":"m 537 538 l 734 983 l 1075 983 l 1075 0 l 802 0 l 802 431 l 537 4 l 273 431 l 273 0 l 0 0 l 0 983 l 307 983 l 537 538 "},"N":{"ha":943,"x_min":0,"x_max":909,"o":"m 636 472 l 636 983 l 909 983 l 909 0 l 636 0 l 273 511 l 273 0 l 0 0 l 0 983 l 272 983 l 636 472 "},"O":{"ha":1092,"x_min":0,"x_max":1058,"o":"m 492 273 l 566 273 q 721 337 657 273 q 785 492 785 401 q 722 646 785 583 q 566 710 659 710 l 492 710 q 336 646 399 710 q 273 492 273 583 q 337 337 273 401 q 492 273 401 273 m 492 983 l 566 983 q 914 839 770 983 q 1058 492 1058 695 q 914 144 1058 288 q 566 0 770 0 l 492 0 q 144 144 288 0 q 0 492 0 288 q 144 839 0 695 q 492 983 288 983 "},"P":{"ha":860,"x_min":0,"x_max":826,"o":"m 0 983 l 464 983 q 720 874 614 981 q 826 617 826 768 q 720 359 826 467 q 464 252 614 253 l 464 252 l 273 252 l 273 0 l 0 0 l 0 983 m 273 536 l 439 536 q 487 555 467 536 q 507 603 507 575 q 487 650 507 631 q 439 670 467 670 l 273 670 l 273 536 "},"Q":{"ha":1092,"x_min":0,"x_max":1058,"o":"m 497 273 l 442 337 l 648 517 l 760 387 q 785 492 785 434 q 722 646 785 583 q 566 710 659 710 l 492 710 q 336 646 399 710 q 273 492 273 583 q 337 337 273 401 q 492 273 401 273 l 497 273 m 781 -56 l 714 21 q 566 0 644 0 l 492 0 q 144 144 288 0 q 0 492 0 288 q 144 839 0 695 q 492 983 288 983 l 566 983 q 914 839 770 983 q 1058 492 1058 695 q 943 174 1058 309 l 986 123 l 781 -56 "},"R":{"ha":860,"x_min":0,"x_max":1145,"o":"m 826 617 q 766 416 826 507 q 610 273 707 327 l 1145 273 l 1145 0 l 435 0 l 273 176 l 273 0 l 0 0 l 0 983 l 464 983 q 720 874 614 981 q 826 617 826 768 m 273 536 l 439 536 q 487 555 467 536 q 507 603 507 575 q 487 650 507 631 q 439 670 467 670 l 273 670 l 273 536 "},"S":{"ha":711,"x_min":-61,"x_max":718,"o":"m 718 710 l 316 710 q 634 378 319 706 q 677 245 677 315 q 608 73 677 146 q 444 0 539 0 l -61 0 l -61 273 l 366 273 l 49 604 q 5 737 5 656 q 73 909 5 837 q 238 983 142 983 l 718 983 l 718 710 "},"T":{"ha":812,"x_min":0,"x_max":778,"o":"m 0 983 l 778 983 l 778 710 l 526 710 l 526 0 l 252 0 l 252 710 l 0 710 l 0 983 "},"U":{"ha":870,"x_min":0,"x_max":836,"o":"m 563 418 l 563 987 l 836 987 l 836 418 q 713 123 836 245 q 418 0 591 0 q 123 123 245 0 q 0 418 0 245 l 0 987 l 273 987 l 273 418 q 315 315 273 358 q 418 273 358 273 q 521 315 478 273 q 563 418 563 358 "},"V":{"ha":1128,"x_min":0,"x_max":1095,"o":"m 541 385 l 767 983 l 1095 983 l 705 0 l 376 0 l 0 983 l 314 983 l 541 385 "},"W":{"ha":1208,"x_min":0,"x_max":1175,"o":"m 784 621 l 867 983 l 1175 983 l 935 0 l 633 0 l 583 366 l 494 0 l 225 0 l 0 983 l 294 983 l 376 621 l 460 983 l 701 983 l 784 621 "},"X":{"ha":991,"x_min":0,"x_max":957,"o":"m 957 983 l 954 977 l 651 492 l 954 5 l 957 0 l 611 0 l 479 214 l 346 0 l 0 0 l 3 5 l 306 492 l 3 977 l 0 983 l 346 983 l 479 769 l 611 983 l 957 983 "},"Y":{"ha":1074,"x_min":0,"x_max":1040,"o":"m 519 646 l 722 983 l 1040 983 l 679 381 l 656 343 l 656 0 l 383 0 l 383 343 l 361 381 l 0 983 l 318 983 l 519 646 "},"Z":{"ha":814,"x_min":0,"x_max":781,"o":"m 0 710 l 0 983 l 781 983 l 781 716 l 358 273 l 781 273 l 781 0 l 0 0 l 0 267 l 422 710 l 0 710 "},"[":{"ha":389,"x_min":0,"x_max":355,"o":"m 355 273 l 355 0 l 0 0 l 0 983 l 355 983 l 355 710 l 273 710 l 273 273 l 355 273 "},"\\":{"ha":524,"x_min":0,"x_max":490,"o":"m 314 983 l 490 0 l 176 0 l 0 983 l 314 983 "},"]":{"ha":389,"x_min":0,"x_max":355,"o":"m 0 0 l 0 273 l 81 273 l 81 710 l 0 710 l 0 983 l 355 983 l 355 0 l 0 0 "},"^":{"ha":825,"x_min":0,"x_max":791,"o":"m 320 390 l 0 390 l 235 983 l 564 983 l 791 390 l 479 390 l 399 599 l 320 390 "},"_":{"ha":608,"x_min":0,"x_max":574,"o":"m 0 0 l 0 273 l 574 273 l 574 0 l 0 0 "},"`":{"ha":34,"x_min":0,"x_max":0,"o":""},"a":{"ha":1128,"x_min":0,"x_max":1095,"o":"m 461 353 l 647 353 l 554 599 l 461 353 m 389 983 l 719 983 l 1095 0 l 781 0 l 743 97 l 364 97 l 328 0 l 0 0 l 389 983 "},"b":{"ha":916,"x_min":0,"x_max":882,"o":"m 570 635 q 580 665 580 648 q 568 698 580 684 q 539 711 556 711 l 274 711 l 274 619 l 539 619 l 539 619 q 570 635 557 619 m 274 273 l 539 273 q 568 287 556 273 q 580 319 580 300 q 571 347 580 335 q 539 366 559 366 l 539 366 l 274 366 l 274 273 m 0 983 l 464 983 q 755 927 660 983 q 882 665 882 852 q 840 498 882 575 q 882 319 882 429 q 799 95 882 189 q 600 0 717 1 l 0 0 l 0 983 "},"c":{"ha":907,"x_min":0,"x_max":873,"o":"m 873 983 l 873 710 l 492 710 q 336 646 399 710 q 273 492 273 583 q 337 337 273 401 q 492 273 401 273 l 873 273 l 873 0 l 492 0 q 144 144 288 0 q 0 492 0 288 q 144 839 0 695 q 492 983 288 983 l 873 983 "},"d":{"ha":956,"x_min":0,"x_max":922,"o":"m 273 273 l 430 273 q 585 337 521 273 q 649 492 649 401 q 586 646 649 583 q 430 710 522 710 l 430 710 l 273 710 l 273 273 m 0 983 l 430 983 q 777 839 633 983 q 922 492 922 695 q 777 144 922 288 q 430 0 633 0 l 0 0 l 0 983 "},"e":{"ha":746,"x_min":0,"x_max":712,"o":"m 0 983 l 712 983 l 712 710 l 273 710 l 273 628 l 712 628 l 712 355 l 273 355 l 273 273 l 712 273 l 712 0 l 0 0 l 0 983 "},"f":{"ha":746,"x_min":0,"x_max":712,"o":"m 0 983 l 712 983 l 712 710 l 273 710 l 273 628 l 644 628 l 644 355 l 273 355 l 273 0 l 0 0 l 0 983 "},"g":{"ha":912,"x_min":0,"x_max":878,"o":"m 605 273 l 605 482 l 878 482 l 878 0 l 492 0 q 144 144 288 0 q 0 492 0 288 q 144 839 0 695 q 492 983 288 983 l 873 983 l 873 710 l 492 710 l 492 710 q 336 646 399 710 q 273 492 273 583 q 337 337 273 401 q 492 273 401 273 l 605 273 "},"h":{"ha":872,"x_min":0,"x_max":838,"o":"m 566 628 l 566 983 l 838 983 l 838 0 l 566 0 l 566 355 l 273 355 l 273 0 l 0 0 l 0 983 l 273 983 l 273 628 l 566 628 "},"i":{"ha":307,"x_min":0,"x_max":273,"o":"m 0 0 l 0 983 l 273 983 l 273 0 l 0 0 "},"j":{"ha":703,"x_min":0,"x_max":669,"o":"m 396 505 l 396 983 l 669 983 l 669 505 q 622 272 669 375 q 527 136 587 193 q 304 17 437 50 q 214 2 260 6 q 182 0 197 1 q 170 0 176 0 q 162 0 166 0 l 0 0 l 0 273 l 170 273 l 170 273 l 172 273 q 180 273 176 273 q 205 277 192 275 q 283 303 248 285 q 396 505 396 362 "},"k":{"ha":943,"x_min":0,"x_max":909,"o":"m 556 983 l 909 983 l 491 427 q 541 345 509 378 q 754 273 610 273 l 909 273 l 909 0 l 754 0 q 342 157 492 0 q 313 191 327 174 q 273 250 291 219 l 273 0 l 0 0 l 0 983 l 273 983 l 273 599 l 556 983 "},"l":{"ha":780,"x_min":0,"x_max":746,"o":"m 273 983 l 273 273 l 746 273 l 746 0 l 0 0 l 0 983 l 273 983 "},"m":{"ha":1109,"x_min":0,"x_max":1075,"o":"m 537 538 l 734 983 l 1075 983 l 1075 0 l 802 0 l 802 431 l 537 4 l 273 431 l 273 0 l 0 0 l 0 983 l 307 983 l 537 538 "},"n":{"ha":943,"x_min":0,"x_max":909,"o":"m 636 472 l 636 983 l 909 983 l 909 0 l 636 0 l 273 511 l 273 0 l 0 0 l 0 983 l 272 983 l 636 472 "},"o":{"ha":1092,"x_min":0,"x_max":1058,"o":"m 492 273 l 566 273 q 721 337 657 273 q 785 492 785 401 q 722 646 785 583 q 566 710 659 710 l 492 710 q 336 646 399 710 q 273 492 273 583 q 337 337 273 401 q 492 273 401 273 m 492 983 l 566 983 q 914 839 770 983 q 1058 492 1058 695 q 914 144 1058 288 q 566 0 770 0 l 492 0 q 144 144 288 0 q 0 492 0 288 q 144 839 0 695 q 492 983 288 983 "},"p":{"ha":860,"x_min":0,"x_max":826,"o":"m 0 983 l 464 983 q 720 874 614 981 q 826 617 826 768 q 720 359 826 467 q 464 252 614 253 l 464 252 l 273 252 l 273 0 l 0 0 l 0 983 m 273 536 l 439 536 q 487 555 467 536 q 507 603 507 575 q 487 650 507 631 q 439 670 467 670 l 273 670 l 273 536 "},"q":{"ha":1092,"x_min":0,"x_max":1058,"o":"m 497 273 l 442 337 l 648 517 l 760 387 q 785 492 785 434 q 722 646 785 583 q 566 710 659 710 l 492 710 q 336 646 399 710 q 273 492 273 583 q 337 337 273 401 q 492 273 401 273 l 497 273 m 781 -56 l 714 21 q 566 0 644 0 l 492 0 q 144 144 288 0 q 0 492 0 288 q 144 839 0 695 q 492 983 288 983 l 566 983 q 914 839 770 983 q 1058 492 1058 695 q 943 174 1058 309 l 986 123 l 781 -56 "},"r":{"ha":860,"x_min":0,"x_max":826,"o":"m 826 617 q 766 416 826 507 q 610 283 707 327 q 724 273 660 273 l 806 273 l 806 0 l 724 0 q 292 155 435 0 q 273 176 282 165 l 273 0 l 0 0 l 0 983 l 464 983 q 720 874 614 981 q 826 617 826 768 m 273 536 l 439 536 q 487 555 467 536 q 507 603 507 575 q 487 650 507 631 q 439 670 467 670 l 273 670 l 273 536 "},"s":{"ha":711,"x_min":0,"x_max":677,"o":"m 663 710 l 316 710 q 634 378 319 706 q 677 245 677 315 q 608 73 677 146 q 444 0 539 0 l 0 0 l 0 273 l 366 273 l 49 604 q 5 737 5 656 q 73 909 5 837 q 238 983 142 983 l 663 983 l 663 710 "},"t":{"ha":812,"x_min":0,"x_max":778,"o":"m 0 983 l 778 983 l 778 710 l 526 710 l 526 0 l 252 0 l 252 710 l 0 710 l 0 983 "},"u":{"ha":870,"x_min":0,"x_max":836,"o":"m 563 418 l 563 987 l 836 987 l 836 418 q 713 123 836 245 q 418 0 591 0 q 123 123 245 0 q 0 418 0 245 l 0 987 l 273 987 l 273 418 q 315 315 273 358 q 418 273 358 273 q 521 315 478 273 q 563 418 563 358 "},"v":{"ha":1128,"x_min":0,"x_max":1095,"o":"m 541 385 l 767 983 l 1095 983 l 705 0 l 376 0 l 0 983 l 314 983 l 541 385 "},"w":{"ha":1208,"x_min":0,"x_max":1175,"o":"m 784 621 l 867 983 l 1175 983 l 935 0 l 633 0 l 583 366 l 494 0 l 225 0 l 0 983 l 294 983 l 376 621 l 460 983 l 701 983 l 784 621 "},"x":{"ha":991,"x_min":0,"x_max":957,"o":"m 957 983 l 954 977 l 651 492 l 954 5 l 957 0 l 611 0 l 479 214 l 346 0 l 0 0 l 3 5 l 306 492 l 3 977 l 0 983 l 346 983 l 479 769 l 611 983 l 957 983 "},"y":{"ha":1074,"x_min":0,"x_max":1040,"o":"m 519 646 l 722 983 l 1040 983 l 679 381 l 656 343 l 656 0 l 383 0 l 383 343 l 361 381 l 0 983 l 318 983 l 519 646 "},"z":{"ha":814,"x_min":0,"x_max":781,"o":"m 0 710 l 0 983 l 781 983 l 781 716 l 358 273 l 781 273 l 781 0 l 0 0 l 0 267 l 422 710 l 0 710 "},"{":{"ha":34,"x_min":0,"x_max":0,"o":""},"|":{"ha":307,"x_min":0,"x_max":273,"o":"m 0 0 l 0 983 l 273 983 l 273 0 l 0 0 "},"}":{"ha":34,"x_min":0,"x_max":0,"o":""},"~":{"ha":34,"x_min":0,"x_max":0,"o":""},"¡":{"ha":34,"x_min":0,"x_max":0,"o":""},"¢":{"ha":34,"x_min":0,"x_max":0,"o":""},"£":{"ha":376,"x_min":0,"x_max":342,"o":"m 24 492 l 24 665 l 0 665 l 0 753 l 24 753 l 24 825 q 71 937 24 891 q 184 983 118 983 q 296 937 250 983 q 342 825 342 891 l 342 791 l 207 791 l 207 814 q 200 830 207 823 q 184 838 193 838 q 168 830 174 838 q 161 814 161 823 l 161 753 l 234 753 l 234 665 l 161 665 l 161 629 l 342 629 l 342 492 l 24 492 "},"¤":{"ha":34,"x_min":0,"x_max":0,"o":""},"¥":{"ha":34,"x_min":0,"x_max":0,"o":""},"¦":{"ha":34,"x_min":0,"x_max":0,"o":""},"§":{"ha":34,"x_min":0,"x_max":0,"o":""},"¨":{"ha":34,"x_min":0,"x_max":0,"o":""},"©":{"ha":34,"x_min":0,"x_max":0,"o":""},"ª":{"ha":34,"x_min":0,"x_max":0,"o":""},"«":{"ha":34,"x_min":0,"x_max":0,"o":""},"¬":{"ha":34,"x_min":0,"x_max":0,"o":""},"®":{"ha":34,"x_min":0,"x_max":0,"o":""},"¯":{"ha":34,"x_min":0,"x_max":0,"o":""},"°":{"ha":34,"x_min":0,"x_max":0,"o":""},"±":{"ha":34,"x_min":0,"x_max":0,"o":""},"²":{"ha":34,"x_min":0,"x_max":0,"o":""},"³":{"ha":34,"x_min":0,"x_max":0,"o":""},"´":{"ha":34,"x_min":0,"x_max":0,"o":""},"µ":{"ha":34,"x_min":0,"x_max":0,"o":""},"¶":{"ha":34,"x_min":0,"x_max":0,"o":""},"·":{"ha":34,"x_min":0,"x_max":0,"o":""},"¸":{"ha":34,"x_min":0,"x_max":0,"o":""},"¹":{"ha":34,"x_min":0,"x_max":0,"o":""},"º":{"ha":34,"x_min":0,"x_max":0,"o":""},"»":{"ha":34,"x_min":0,"x_max":0,"o":""},"¼":{"ha":34,"x_min":0,"x_max":0,"o":""},"½":{"ha":34,"x_min":0,"x_max":0,"o":""},"¾":{"ha":34,"x_min":0,"x_max":0,"o":""},"¿":{"ha":34,"x_min":0,"x_max":0,"o":""},"À":{"ha":34,"x_min":0,"x_max":0,"o":""},"Á":{"ha":34,"x_min":0,"x_max":0,"o":""},"Â":{"ha":34,"x_min":0,"x_max":0,"o":""},"Ã":{"ha":34,"x_min":0,"x_max":0,"o":""},"Ä":{"ha":34,"x_min":0,"x_max":0,"o":""},"Å":{"ha":34,"x_min":0,"x_max":0,"o":""},"Æ":{"ha":34,"x_min":0,"x_max":0,"o":""},"Ç":{"ha":34,"x_min":0,"x_max":0,"o":""},"È":{"ha":34,"x_min":0,"x_max":0,"o":""},"É":{"ha":34,"x_min":0,"x_max":0,"o":""},"Ê":{"ha":34,"x_min":0,"x_max":0,"o":""},"Ë":{"ha":34,"x_min":0,"x_max":0,"o":""},"Ì":{"ha":34,"x_min":0,"x_max":0,"o":""},"Í":{"ha":34,"x_min":0,"x_max":0,"o":""},"Î":{"ha":34,"x_min":0,"x_max":0,"o":""},"Ï":{"ha":34,"x_min":0,"x_max":0,"o":""},"Ð":{"ha":34,"x_min":0,"x_max":0,"o":""},"Ñ":{"ha":34,"x_min":0,"x_max":0,"o":""},"Ò":{"ha":34,"x_min":0,"x_max":0,"o":""},"Ó":{"ha":34,"x_min":0,"x_max":0,"o":""},"Ô":{"ha":34,"x_min":0,"x_max":0,"o":""},"Õ":{"ha":34,"x_min":0,"x_max":0,"o":""},"Ö":{"ha":34,"x_min":0,"x_max":0,"o":""},"×":{"ha":34,"x_min":0,"x_max":0,"o":""},"Ø":{"ha":34,"x_min":0,"x_max":0,"o":""},"Ù":{"ha":34,"x_min":0,"x_max":0,"o":""},"Ú":{"ha":34,"x_min":0,"x_max":0,"o":""},"Û":{"ha":34,"x_min":0,"x_max":0,"o":""},"Ü":{"ha":34,"x_min":0,"x_max":0,"o":""},"Ý":{"ha":34,"x_min":0,"x_max":0,"o":""},"Þ":{"ha":34,"x_min":0,"x_max":0,"o":""},"ß":{"ha":899,"x_min":0,"x_max":865,"o":"m 865 665 q 827 498 865 575 q 865 319 865 429 q 791 94 865 189 q 616 0 718 0 l 372 0 l 372 273 l 562 273 q 588 287 577 273 q 599 319 599 300 q 591 347 599 335 q 562 366 580 366 l 562 366 l 372 366 l 372 619 l 562 619 l 562 619 q 589 635 578 619 q 599 665 599 648 q 588 697 599 684 q 562 711 577 711 l 330 711 q 292 703 307 711 q 274 687 281 698 q 266 664 266 675 l 266 0 l 0 0 l 0 664 q 69 888 0 805 q 299 983 147 983 l 496 983 q 753 927 669 983 q 865 665 865 852 "},"à":{"ha":34,"x_min":0,"x_max":0,"o":""},"á":{"ha":34,"x_min":0,"x_max":0,"o":""},"â":{"ha":34,"x_min":0,"x_max":0,"o":""},"ã":{"ha":34,"x_min":0,"x_max":0,"o":""},"ä":{"ha":34,"x_min":0,"x_max":0,"o":""},"å":{"ha":34,"x_min":0,"x_max":0,"o":""},"æ":{"ha":34,"x_min":0,"x_max":0,"o":""},"ç":{"ha":34,"x_min":0,"x_max":0,"o":""},"è":{"ha":34,"x_min":0,"x_max":0,"o":""},"é":{"ha":34,"x_min":0,"x_max":0,"o":""},"ê":{"ha":34,"x_min":0,"x_max":0,"o":""},"ë":{"ha":34,"x_min":0,"x_max":0,"o":""},"ì":{"ha":34,"x_min":0,"x_max":0,"o":""},"í":{"ha":34,"x_min":0,"x_max":0,"o":""},"î":{"ha":34,"x_min":0,"x_max":0,"o":""},"ï":{"ha":34,"x_min":0,"x_max":0,"o":""},"ð":{"ha":34,"x_min":0,"x_max":0,"o":""},"ñ":{"ha":34,"x_min":0,"x_max":0,"o":""},"ò":{"ha":34,"x_min":0,"x_max":0,"o":""},"ó":{"ha":34,"x_min":0,"x_max":0,"o":""},"ô":{"ha":34,"x_min":0,"x_max":0,"o":""},"õ":{"ha":34,"x_min":0,"x_max":0,"o":""},"ö":{"ha":34,"x_min":0,"x_max":0,"o":""},"÷":{"ha":34,"x_min":0,"x_max":0,"o":""},"ø":{"ha":34,"x_min":0,"x_max":0,"o":""},"ù":{"ha":34,"x_min":0,"x_max":0,"o":""},"ú":{"ha":34,"x_min":0,"x_max":0,"o":""},"û":{"ha":34,"x_min":0,"x_max":0,"o":""},"ü":{"ha":34,"x_min":0,"x_max":0,"o":""},"ý":{"ha":34,"x_min":0,"x_max":0,"o":""},"þ":{"ha":34,"x_min":0,"x_max":0,"o":""},"ÿ":{"ha":34,"x_min":0,"x_max":0,"o":""},"ı":{"ha":34,"x_min":0,"x_max":0,"o":""},"ˆ":{"ha":34,"x_min":0,"x_max":0,"o":""},"ˇ":{"ha":34,"x_min":0,"x_max":0,"o":""},"ˉ":{"ha":34,"x_min":0,"x_max":0,"o":""},"˘":{"ha":34,"x_min":0,"x_max":0,"o":""},"˙":{"ha":34,"x_min":0,"x_max":0,"o":""},"˚":{"ha":34,"x_min":0,"x_max":0,"o":""},"˛":{"ha":34,"x_min":0,"x_max":0,"o":""},"˜":{"ha":34,"x_min":0,"x_max":0,"o":""},"˝":{"ha":34,"x_min":0,"x_max":0,"o":""},"–":{"ha":34,"x_min":0,"x_max":0,"o":""},"—":{"ha":34,"x_min":0,"x_max":0,"o":""},"‘":{"ha":34,"x_min":0,"x_max":0,"o":""},"’":{"ha":34,"x_min":0,"x_max":0,"o":""},"‚":{"ha":34,"x_min":0,"x_max":0,"o":""},"“":{"ha":34,"x_min":0,"x_max":0,"o":""},"”":{"ha":34,"x_min":0,"x_max":0,"o":""},"„":{"ha":34,"x_min":0,"x_max":0,"o":""},"†":{"ha":34,"x_min":0,"x_max":0,"o":""},"‡":{"ha":34,"x_min":0,"x_max":0,"o":""},"•":{"ha":34,"x_min":0,"x_max":0,"o":""},"…":{"ha":34,"x_min":0,"x_max":0,"o":""},"‹":{"ha":34,"x_min":0,"x_max":0,"o":""},"›":{"ha":34,"x_min":0,"x_max":0,"o":""},"⁄":{"ha":34,"x_min":0,"x_max":0,"o":""},"₣":{"ha":34,"x_min":0,"x_max":0,"o":""},"₤":{"ha":34,"x_min":0,"x_max":0,"o":""},"₧":{"ha":34,"x_min":0,"x_max":0,"o":""},"€":{"ha":34,"x_min":0,"x_max":0,"o":""},"№":{"ha":34,"x_min":0,"x_max":0,"o":""},"™":{"ha":34,"x_min":0,"x_max":0,"o":""},"∂":{"ha":34,"x_min":0,"x_max":0,"o":""},"∆":{"ha":34,"x_min":0,"x_max":0,"o":""},"∏":{"ha":34,"x_min":0,"x_max":0,"o":""},"∑":{"ha":34,"x_min":0,"x_max":0,"o":""},"−":{"ha":34,"x_min":0,"x_max":0,"o":""},"√":{"ha":34,"x_min":0,"x_max":0,"o":""},"∞":{"ha":34,"x_min":0,"x_max":0,"o":""},"∫":{"ha":34,"x_min":0,"x_max":0,"o":""},"≈":{"ha":34,"x_min":0,"x_max":0,"o":""},"≤":{"ha":34,"x_min":0,"x_max":0,"o":""},"≥":{"ha":34,"x_min":0,"x_max":0,"o":""}}}
